<?xml version="1.0" encoding="utf-8"?>
<!-- Generator: Adobe Illustrator 24.0.2, SVG Export Plug-In . SVG Version: 6.00 Build 0)  -->
<svg version="1.1" id="Layer_1" xmlns:svgjs="http://svgjs.com/svgjs"
	 xmlns="http://www.w3.org/2000/svg" xmlns:xlink="http://www.w3.org/1999/xlink" x="0px" y="0px" viewBox="0 0 512 512"
	 style="enable-background:new 0 0 512 512;" xml:space="preserve">
<style type="text/css">
	.st0{fill:#F85174;}
	.st1{fill:#F2F2F2;}
	.st2{clip-path:url(#SVGID_2_);}
	.st3{fill:#B2D7F3;}
	.st4{fill:#EEF4FF;}
	.st5{fill:#D6E9F8;}
</style>
<path class="st0" d="M512,164.3c0,59.7-40.4,102.5-96,156.7c-58.8,57.3-119.4,89.2-160,106.8c-40.4-17.2-101.2-48.9-160-106.1
	c-55.2-53.8-96-97-96-157.4C0,87.5,61.9,25.6,138.7,25.6c49.1,0,91.7,25.6,117.3,64c24.5-38.4,68.3-64,117.3-64
	C450.1,25.6,512,87.5,512,164.3z"/>
<path class="st1" d="M42.7,174.9c-6.4,0-10.7-4.3-10.7-10.7c0-58.7,48-106.7,106.7-106.7c6.4,0,10.7,4.3,10.7,10.7
	s-4.3,10.7-10.7,10.7c-46.9,0-85.3,38.4-85.3,85.3C53.3,170.7,49.1,174.9,42.7,174.9z"/>
<g>
	<g>
		<defs>
			<path id="SVGID_1_" d="M512,164.3c0,59.7-40.4,102.5-96,156.7c-58.8,57.3-119.4,89.2-160,106.8c-40.4-17.2-101.2-48.9-160-106.1
				c-55.2-53.8-96-97-96-157.4C0,87.5,61.9,25.6,138.7,25.6c49.1,0,91.7,25.6,117.3,64c24.5-38.4,68.3-64,117.3-64
				C450.1,25.6,512,87.5,512,164.3z"/>
		</defs>
		<clipPath id="SVGID_2_">
			<use xlink:href="#SVGID_1_"  style="overflow:visible;"/>
		</clipPath>
		<g class="st2">
			<path class="st3" d="M419.4,365h-19.3v-16.6h19.3c25.6,0,46.4-20.8,46.4-46.4s-20.8-46.4-46.4-46.4h-19.3V239h19.3
				c34.7,0,63,28.2,63,63C482.4,336.7,454.2,365,419.4,365z M92.6,239.1h19.3v16.6H92.6c-25.6,0-46.4,20.8-46.4,46.4
				s20.8,46.4,46.4,46.4h19.3V365H92.6c-34.7,0-63-28.2-63-63S57.8,239.1,92.6,239.1z"/>
			<g>
				<path class="st4" d="M387.5,378.4L256,395.2l-131.5-16.9L104.6,302l19.9-76.4L256,208.8l131.5,16.9l19.9,76.4L387.5,378.4z"/>
				<path class="st5" d="M387.5,378.4L256,395.2V208.8l131.5,16.9l19.9,76.4L387.5,378.4z"/>
				<g>
					<g>
						<path class="st5" d="M104.6,253.9h302.9v16.6H104.6V253.9z"/>
						<path class="st5" d="M104.6,293.7h302.9v16.6H104.6V293.7z"/>
						<path class="st5" d="M104.6,333.6h302.9v16.6H104.6V333.6z"/>
					</g>
					<path class="st3" d="M256,253.9h151.4v16.6H256V253.9z"/>
					<path class="st3" d="M256,293.7h151.4v16.6H256V293.7z"/>
					<path class="st3" d="M256,333.6h151.4v16.6H256V333.6z"/>
				</g>
				<path class="st3" d="M387.5,378.4l19.9-2.6V228.2l-19.9-2.6V378.4z"/>
				<path class="st5" d="M124.5,225.7l-19.9,2.6v147.6l19.9,2.6V225.7z"/>
			</g>
		</g>
	</g>
</g>
</svg>
